
<svg width="318" height="318" viewBox="0 0 318 318" fill="none" xmlns="http://www.w3.org/2000/svg">
<path d="M274.83 35.3814L175.178 111.873L193.499 64.8042L274.83 35.3814Z" fill="#E2761B" stroke="#E2761B" stroke-width="0.0878845" stroke-linecap="round" stroke-linejoin="round"/>
<path d="M43.0803 35.3814L142.1 112.491L124.501 64.8042L43.0803 35.3814Z" fill="#E4761B" stroke="#E4761B" stroke-width="0.0878845" stroke-linecap="round" stroke-linejoin="round"/>
<path d="M237.329 201.913L209.724 242.081L268.712 257.326L285.768 202.619L237.329 201.913Z" fill="#E4761B" stroke="#E4761B" stroke-width="0.0878845" stroke-linecap="round" stroke-linejoin="round"/>
<path d="M32.3217 202.619L49.288 257.326L108.276 242.081L80.6711 201.913L32.3217 202.619Z" fill="#E4761B" stroke="#E4761B" stroke-width="0.0878845" stroke-linecap="round" stroke-linejoin="round"/>
<path d="M104.676 134.693L88.7832 158.554L147.154 160.671L145.037 98.2778L104.676 134.693Z" fill="#E4761B" stroke="#E4761B" stroke-width="0.0878845" stroke-linecap="round" stroke-linejoin="round"/>
<path d="M213.235 134.693L172.346 97.6597L170.846 160.671L229.128 158.554L213.235 134.693Z" fill="#E4761B" stroke="#E4761B" stroke-width="0.0878845" stroke-linecap="round" stroke-linejoin="round"/>
<path d="M108.276 242.081L143.537 226.097L113.141 202.972L108.276 242.081Z" fill="#E4761B" stroke="#E4761B" stroke-width="0.0878845" stroke-linecap="round" stroke-linejoin="round"/>
<path d="M174.463 226.097L209.724 242.081L204.859 202.972L174.463 226.097Z" fill="#E4761B" stroke="#E4761B" stroke-width="0.0878845" stroke-linecap="round" stroke-linejoin="round"/>
<path d="M209.724 242.082L174.463 226.098L177.286 247.035L176.933 256.679L209.724 242.082Z" fill="#D7C1B3" stroke="#D7C1B3" stroke-width="0.0878845" stroke-linecap="round" stroke-linejoin="round"/>
<path d="M108.276 242.082L141.067 256.679L140.802 247.035L143.537 226.098L108.276 242.082Z" fill="#D7C1B3" stroke="#D7C1B3" stroke-width="0.0878845" stroke-linecap="round" stroke-linejoin="round"/>
<path d="M141.684 187.051L112.347 178.877L133.109 170.174L141.684 187.051Z" fill="#233447" stroke="#233447" stroke-width="0.0878845" stroke-linecap="round" stroke-linejoin="round"/>
<path d="M176.316 187.051L184.891 170.174L205.74 178.877L176.316 187.051Z" fill="#233447" stroke="#233447" stroke-width="0.0878845" stroke-linecap="round" stroke-linejoin="round"/>
<path d="M108.276 242.081L113.317 201.913L80.6711 202.619L108.276 242.081Z" fill="#CD6116" stroke="#CD6116" stroke-width="0.0878845" stroke-linecap="round" stroke-linejoin="round"/>
<path d="M204.683 201.913L209.724 242.081L237.329 202.619L204.683 201.913Z" fill="#CD6116" stroke="#CD6116" stroke-width="0.0878845" stroke-linecap="round" stroke-linejoin="round"/>
<path d="M229.128 158.554L170.846 160.671L176.316 187.051L184.891 170.174L205.74 178.877L229.128 158.554Z" fill="#CD6116" stroke="#CD6116" stroke-width="0.0878845" stroke-linecap="round" stroke-linejoin="round"/>
<path d="M112.347 178.877L133.109 170.174L141.684 187.051L147.154 160.671L88.7832 158.554L112.347 178.877Z" fill="#CD6116" stroke="#CD6116" stroke-width="0.0878845" stroke-linecap="round" stroke-linejoin="round"/>
<path d="M88.7832 158.554L113.141 202.972L112.347 178.877L88.7832 158.554Z" fill="#E4751F" stroke="#E4751F" stroke-width="0.0878845" stroke-linecap="round" stroke-linejoin="round"/>
<path d="M205.74 178.877L204.859 202.972L229.128 158.554L205.74 178.877Z" fill="#E4751F" stroke="#E4751F" stroke-width="0.0878845" stroke-linecap="round" stroke-linejoin="round"/>
<path d="M147.154 160.671L141.684 187.051L148.654 221.85L150.242 178.877L147.154 160.671Z" fill="#E4751F" stroke="#E4751F" stroke-width="0.0878845" stroke-linecap="round" stroke-linejoin="round"/>
<path d="M170.846 160.671L167.846 178.789L169.258 221.85L176.316 187.051L170.846 160.671Z" fill="#E4751F" stroke="#E4751F" stroke-width="0.0878845" stroke-linecap="round" stroke-linejoin="round"/>
<path d="M176.316 187.051L169.258 221.85L174.463 226.097L204.859 202.972L205.74 178.877L176.316 187.051Z" fill="#F6851B" stroke="#F6851B" stroke-width="0.0878845" stroke-linecap="round" stroke-linejoin="round"/>
<path d="M112.347 178.877L113.141 202.972L143.537 226.097L148.654 221.85L141.684 187.051L112.347 178.877Z" fill="#F6851B" stroke="#F6851B" stroke-width="0.0878845" stroke-linecap="round" stroke-linejoin="round"/>
<path d="M176.933 256.679L177.286 247.035L174.639 244.639H143.361L140.802 247.035L141.067 256.679L108.276 242.082L120.518 252.077L142.92 267.235H175.08L197.57 252.077L209.724 242.082L176.933 256.679Z" fill="#C0AD9E" stroke="#C0AD9E" stroke-width="0.0878845" stroke-linecap="round" stroke-linejoin="round"/>
<path d="M174.463 226.098L169.258 221.85H148.654L143.537 226.098L140.802 247.035L143.361 244.639H174.639L177.286 247.035L174.463 226.098Z" fill="#161616" stroke="#161616" stroke-width="0.0878845" stroke-linecap="round" stroke-linejoin="round"/>
<path d="M278.43 113.108L287.092 73.9178L274.83 35.3814L174.463 105.078L213.235 134.693L267.406 150.556L279.399 136.811L274.301 133.282L282.347 126.047L276.048 121.224L284.093 115.152L278.43 113.108Z" fill="#763D16" stroke="#763D16" stroke-width="0.0878845" stroke-linecap="round" stroke-linejoin="round"/>
<path d="M30.9082 73.9178L39.5701 113.108L33.8187 115.152L41.864 121.224L35.6533 126.047L43.6986 133.282L38.6011 136.811L50.5063 150.556L104.676 134.693L143.449 105.078L43.0803 35.3814L30.9082 73.9178Z" fill="#763D16" stroke="#763D16" stroke-width="0.0878845" stroke-linecap="round" stroke-linejoin="round"/>
<path d="M267.406 150.556L213.235 134.693L229.128 158.554L204.859 202.972L237.329 202.619H285.768L267.406 150.556Z" fill="#F6851B" stroke="#F6851B" stroke-width="0.0878845" stroke-linecap="round" stroke-linejoin="round"/>
<path d="M104.676 134.693L50.5063 150.556L32.3217 202.619H80.6711L113.141 202.972L88.7832 158.554L104.676 134.693Z" fill="#F6851B" stroke="#F6851B" stroke-width="0.0878845" stroke-linecap="round" stroke-linejoin="round"/>
<path d="M170.846 160.671L174.463 105.078L193.588 64.8042H124.501L143.449 105.078L147.154 160.671L148.654 178.877L148.742 221.85H169.258L169.434 178.877L170.846 160.671Z" fill="#F6851B" stroke="#F6851B" stroke-width="0.0878845" stroke-linecap="round" stroke-linejoin="round"/>
</svg>
