
<svg width="300" height="185" viewBox="0 0 300 185" fill="none" xmlns="http://www.w3.org/2000/svg">
<path d="M61.4385 41.3867C118.466 -13.7955 212.532 -13.7955 269.56 41.3867L273.9 45.5484C276.938 48.478 276.938 53.3325 273.9 56.262L252.747 76.6199C251.228 78.0846 248.832 78.0846 247.313 76.6199L241.207 70.7525C198.414 29.7024 132.585 29.7024 89.7918 70.7525L83.1732 77.1085C81.6543 78.5732 79.258 78.5732 77.7391 77.1085L56.5865 56.7507C53.5485 53.8211 53.5485 48.9666 56.5865 46.0371L61.4385 41.3867ZM298.216 68.7963L316.873 86.6694C319.911 89.599 319.911 94.4535 316.873 97.383L232.602 178.666C230.063 181.107 225.788 181.107 223.25 178.666C223.25 178.666 223.25 178.666 223.25 178.666L163.702 121.486C162.942 120.754 161.744 120.754 160.985 121.486C160.985 121.486 160.985 121.486 160.985 121.486L101.436 178.666C98.8984 181.107 94.6236 181.107 92.0858 178.666C92.0858 178.666 92.0858 178.666 92.0858 178.666L7.77747 97.383C4.73946 94.4535 4.73946 89.599 7.77747 86.6695L26.4346 68.7964C28.9724 66.3558 33.2472 66.3558 35.7849 68.7964L95.3339 125.976C96.0933 126.708 97.2909 126.708 98.0503 125.976C98.0503 125.976 98.0503 125.976 98.0503 125.976L157.598 68.7963C160.136 66.3558 164.411 66.3558 166.949 68.7963C166.949 68.7963 166.949 68.7963 166.949 68.7963L226.498 125.976C227.258 126.708 228.455 126.708 229.215 125.976L288.764 68.7963C291.301 66.3558 295.576 66.3558 298.114 68.7963L298.216 68.7963Z" fill="#3B99FC"/>
</svg>
